<svg width="531" height="120" viewBox="0 0 531 120" fill="none" xmlns="http://www.w3.org/2000/svg">
<path d="M184.258 75.4531C186.338 75.4531 187.949 74.8965 189.092 73.7832C190.234 72.6406 190.791 71.0586 190.762 69.0371H204.648C204.648 74.252 202.773 78.5293 199.023 81.8691C195.303 85.209 190.498 86.8789 184.609 86.8789C177.695 86.8789 172.246 84.7109 168.262 80.375C164.277 76.0391 162.285 70.0332 162.285 62.3574V61.7422C162.285 56.9375 163.164 52.7041 164.922 49.042C166.709 45.3506 169.272 42.5234 172.612 40.5605C175.952 38.5684 179.907 37.5723 184.478 37.5723C190.659 37.5723 195.566 39.2861 199.199 42.7139C202.832 46.1416 204.648 50.7852 204.648 56.6445H190.762C190.762 54.1836 190.161 52.2939 188.96 50.9756C187.759 49.6572 186.147 48.998 184.126 48.998C180.288 48.998 178.047 51.4443 177.402 56.3369C177.197 57.8896 177.095 60.0283 177.095 62.7529C177.095 67.5283 177.666 70.8389 178.809 72.6846C179.951 74.5303 181.768 75.4531 184.258 75.4531ZM235.806 72.6406C235.806 71.3809 235.146 70.3701 233.828 69.6084C232.51 68.8467 230.005 68.0557 226.313 67.2354C222.622 66.415 219.575 65.3457 217.173 64.0273C214.771 62.6797 212.939 61.0537 211.68 59.1494C210.42 57.2451 209.79 55.0625 209.79 52.6016C209.79 48.2363 211.592 44.6475 215.195 41.835C218.799 38.9932 223.516 37.5723 229.346 37.5723C235.615 37.5723 240.654 38.9932 244.463 41.835C248.271 44.6768 250.176 48.4121 250.176 53.041H235.322C235.322 49.2324 233.315 47.3281 229.302 47.3281C227.749 47.3281 226.445 47.7676 225.391 48.6465C224.336 49.4961 223.809 50.5654 223.809 51.8545C223.809 53.1729 224.453 54.2422 225.742 55.0625C227.031 55.8828 229.082 56.5566 231.895 57.084C234.736 57.6113 237.227 58.2412 239.365 58.9736C246.514 61.4346 250.088 65.8438 250.088 72.2012C250.088 76.5371 248.154 80.0674 244.287 82.792C240.449 85.5166 235.469 86.8789 229.346 86.8789C225.273 86.8789 221.641 86.1465 218.447 84.6816C215.254 83.2168 212.764 81.2246 210.977 78.7051C209.189 76.1855 208.296 73.5342 208.296 70.751H222.139C222.197 72.9482 222.93 74.5596 224.336 75.585C225.742 76.5811 227.544 77.0791 229.741 77.0791C231.763 77.0791 233.271 76.6689 234.268 75.8486C235.293 75.0283 235.806 73.959 235.806 72.6406ZM255.317 61.874C255.317 57.0693 256.108 52.8213 257.69 49.1299C259.272 45.4385 261.543 42.5967 264.502 40.6045C267.461 38.583 270.903 37.5723 274.829 37.5723C279.78 37.5723 283.647 39.2422 286.431 42.582L286.958 38.4512H300.405V84.1982C300.405 88.3877 299.424 92.0205 297.461 95.0967C295.527 98.2021 292.715 100.575 289.023 102.216C285.332 103.886 281.055 104.721 276.191 104.721C272.705 104.721 269.321 104.062 266.04 102.743C262.788 101.425 260.298 99.7109 258.569 97.6016L264.766 88.9004C267.52 92.1523 271.152 93.7783 275.664 93.7783C282.227 93.7783 285.508 90.4092 285.508 83.6709V82.1768C282.666 85.3115 279.077 86.8789 274.741 86.8789C268.94 86.8789 264.253 84.667 260.679 80.2432C257.104 75.79 255.317 69.8428 255.317 62.4014V61.874ZM270.171 62.7969C270.171 66.6934 270.903 69.7842 272.368 72.0693C273.833 74.3252 275.884 75.4531 278.521 75.4531C281.714 75.4531 284.043 74.3838 285.508 72.2451V52.25C284.072 50.082 281.772 48.998 278.608 48.998C275.972 48.998 273.906 50.1846 272.412 52.5576C270.918 54.9014 270.171 58.3145 270.171 62.7969ZM306.953 61.7861C306.953 57.04 307.876 52.8213 309.722 49.1299C311.567 45.4092 314.219 42.5527 317.676 40.5605C321.133 38.5684 325.19 37.5723 329.849 37.5723C336.968 37.5723 342.578 39.7842 346.68 44.208C350.781 48.6025 352.832 54.5938 352.832 62.1816V62.709C352.832 70.1211 350.767 76.0098 346.636 80.375C342.534 84.7109 336.968 86.8789 329.937 86.8789C323.169 86.8789 317.734 84.8574 313.633 80.8145C309.531 76.7422 307.319 71.2344 306.997 64.291L306.953 61.7861ZM321.763 62.709C321.763 67.1035 322.451 70.3262 323.828 72.377C325.205 74.4277 327.241 75.4531 329.937 75.4531C335.21 75.4531 337.905 71.3955 338.022 63.2803V61.7861C338.022 53.2607 335.298 48.998 329.849 48.998C324.897 48.998 322.217 52.6748 321.807 60.0283L321.763 62.709ZM357.49 61.874C357.49 54.3447 359.116 48.4121 362.368 44.0762C365.62 39.7402 370.161 37.5723 375.991 37.5723C380.239 37.5723 383.813 39.2422 386.714 42.582V18.5H401.567V86H388.252L387.505 80.9023C384.458 84.8867 380.591 86.8789 375.903 86.8789C370.249 86.8789 365.767 84.7109 362.456 80.375C359.146 76.0391 357.49 69.8721 357.49 61.874ZM372.3 62.7969C372.3 71.2344 374.761 75.4531 379.683 75.4531C382.964 75.4531 385.308 74.0762 386.714 71.3223V53.2168C385.366 50.4043 383.052 48.998 379.771 48.998C375.2 48.998 372.725 52.6895 372.344 60.0723L372.3 62.7969ZM408.115 61.7861C408.115 57.04 409.038 52.8213 410.884 49.1299C412.729 45.4092 415.381 42.5527 418.838 40.5605C422.295 38.5684 426.353 37.5723 431.011 37.5723C438.13 37.5723 443.74 39.7842 447.842 44.208C451.943 48.6025 453.994 54.5938 453.994 62.1816V62.709C453.994 70.1211 451.929 76.0098 447.798 80.375C443.696 84.7109 438.13 86.8789 431.099 86.8789C424.331 86.8789 418.896 84.8574 414.795 80.8145C410.693 76.7422 408.481 71.2344 408.159 64.291L408.115 61.7861ZM422.925 62.709C422.925 67.1035 423.613 70.3262 424.99 72.377C426.367 74.4277 428.403 75.4531 431.099 75.4531C436.372 75.4531 439.067 71.3955 439.185 63.2803V61.7861C439.185 53.2607 436.46 48.998 431.011 48.998C426.06 48.998 423.379 52.6748 422.969 60.0283L422.925 62.709ZM480.625 75.4531C482.705 75.4531 484.316 74.8965 485.459 73.7832C486.602 72.6406 487.158 71.0586 487.129 69.0371H501.016C501.016 74.252 499.141 78.5293 495.391 81.8691C491.67 85.209 486.865 86.8789 480.977 86.8789C474.062 86.8789 468.613 84.7109 464.629 80.375C460.645 76.0391 458.652 70.0332 458.652 62.3574V61.7422C458.652 56.9375 459.531 52.7041 461.289 49.042C463.076 45.3506 465.64 42.5234 468.979 40.5605C472.319 38.5684 476.274 37.5723 480.845 37.5723C487.026 37.5723 491.934 39.2861 495.566 42.7139C499.199 46.1416 501.016 50.7852 501.016 56.6445H487.129C487.129 54.1836 486.528 52.2939 485.327 50.9756C484.126 49.6572 482.515 48.998 480.493 48.998C476.655 48.998 474.414 51.4443 473.77 56.3369C473.564 57.8896 473.462 60.0283 473.462 62.7529C473.462 67.5283 474.033 70.8389 475.176 72.6846C476.318 74.5303 478.135 75.4531 480.625 75.4531ZM516.44 71.6299C518.784 71.6299 520.732 72.333 522.285 73.7393C523.838 75.1162 524.614 76.8887 524.614 79.0566C524.614 81.2246 523.838 83.0117 522.285 84.418C520.732 85.7949 518.784 86.4834 516.44 86.4834C514.067 86.4834 512.104 85.7803 510.552 84.374C509.028 82.9678 508.267 81.1953 508.267 79.0566C508.267 76.918 509.028 75.1455 510.552 73.7393C512.104 72.333 514.067 71.6299 516.44 71.6299Z" fill="white"/>
<rect width="120" height="120" rx="16" fill="#9147FF"/>
<path d="M28 29C28 27.8954 28.8954 27 30 27H32C45.2548 27 56 37.7452 56 51V82C56 83.1046 55.1046 84 54 84H52C38.7452 84 28 73.2548 28 60V29Z" fill="#BE92FF"/>
<path d="M64 38C64 36.8954 64.8954 36 66 36H68C81.2548 36 92 46.7452 92 60V91C92 92.1046 91.1046 93 90 93H88C74.7452 93 64 82.2548 64 69V38Z" fill="white"/>
</svg>
