<svg width="531" height="120" viewBox="0 0 531 120" fill="none" xmlns="http://www.w3.org/2000/svg">
<path d="M184.258 76.4531C186.338 76.4531 187.949 75.8965 189.092 74.7832C190.234 73.6406 190.791 72.0586 190.762 70.0371H204.648C204.648 75.252 202.773 79.5293 199.023 82.8691C195.303 86.209 190.498 87.8789 184.609 87.8789C177.695 87.8789 172.246 85.7109 168.262 81.375C164.277 77.0391 162.285 71.0332 162.285 63.3574V62.7422C162.285 57.9375 163.164 53.7041 164.922 50.042C166.709 46.3506 169.272 43.5234 172.612 41.5605C175.952 39.5684 179.907 38.5723 184.478 38.5723C190.659 38.5723 195.566 40.2861 199.199 43.7139C202.832 47.1416 204.648 51.7852 204.648 57.6445H190.762C190.762 55.1836 190.161 53.2939 188.96 51.9756C187.759 50.6572 186.147 49.998 184.126 49.998C180.288 49.998 178.047 52.4443 177.402 57.3369C177.197 58.8896 177.095 61.0283 177.095 63.7529C177.095 68.5283 177.666 71.8389 178.809 73.6846C179.951 75.5303 181.768 76.4531 184.258 76.4531ZM235.806 73.6406C235.806 72.3809 235.146 71.3701 233.828 70.6084C232.51 69.8467 230.005 69.0557 226.313 68.2354C222.622 67.415 219.575 66.3457 217.173 65.0273C214.771 63.6797 212.939 62.0537 211.68 60.1494C210.42 58.2451 209.79 56.0625 209.79 53.6016C209.79 49.2363 211.592 45.6475 215.195 42.835C218.799 39.9932 223.516 38.5723 229.346 38.5723C235.615 38.5723 240.654 39.9932 244.463 42.835C248.271 45.6768 250.176 49.4121 250.176 54.041H235.322C235.322 50.2324 233.315 48.3281 229.302 48.3281C227.749 48.3281 226.445 48.7676 225.391 49.6465C224.336 50.4961 223.809 51.5654 223.809 52.8545C223.809 54.1729 224.453 55.2422 225.742 56.0625C227.031 56.8828 229.082 57.5566 231.895 58.084C234.736 58.6113 237.227 59.2412 239.365 59.9736C246.514 62.4346 250.088 66.8438 250.088 73.2012C250.088 77.5371 248.154 81.0674 244.287 83.792C240.449 86.5166 235.469 87.8789 229.346 87.8789C225.273 87.8789 221.641 87.1465 218.447 85.6816C215.254 84.2168 212.764 82.2246 210.977 79.7051C209.189 77.1855 208.296 74.5342 208.296 71.751H222.139C222.197 73.9482 222.93 75.5596 224.336 76.585C225.742 77.5811 227.544 78.0791 229.741 78.0791C231.763 78.0791 233.271 77.6689 234.268 76.8486C235.293 76.0283 235.806 74.959 235.806 73.6406ZM255.317 62.874C255.317 58.0693 256.108 53.8213 257.69 50.1299C259.272 46.4385 261.543 43.5967 264.502 41.6045C267.461 39.583 270.903 38.5723 274.829 38.5723C279.78 38.5723 283.647 40.2422 286.431 43.582L286.958 39.4512H300.405V85.1982C300.405 89.3877 299.424 93.0205 297.461 96.0967C295.527 99.2021 292.715 101.575 289.023 103.216C285.332 104.886 281.055 105.721 276.191 105.721C272.705 105.721 269.321 105.062 266.04 103.743C262.788 102.425 260.298 100.711 258.569 98.6016L264.766 89.9004C267.52 93.1523 271.152 94.7783 275.664 94.7783C282.227 94.7783 285.508 91.4092 285.508 84.6709V83.1768C282.666 86.3115 279.077 87.8789 274.741 87.8789C268.94 87.8789 264.253 85.667 260.679 81.2432C257.104 76.79 255.317 70.8428 255.317 63.4014V62.874ZM270.171 63.7969C270.171 67.6934 270.903 70.7842 272.368 73.0693C273.833 75.3252 275.884 76.4531 278.521 76.4531C281.714 76.4531 284.043 75.3838 285.508 73.2451V53.25C284.072 51.082 281.772 49.998 278.608 49.998C275.972 49.998 273.906 51.1846 272.412 53.5576C270.918 55.9014 270.171 59.3145 270.171 63.7969ZM306.953 62.7861C306.953 58.04 307.876 53.8213 309.722 50.1299C311.567 46.4092 314.219 43.5527 317.676 41.5605C321.133 39.5684 325.19 38.5723 329.849 38.5723C336.968 38.5723 342.578 40.7842 346.68 45.208C350.781 49.6025 352.832 55.5938 352.832 63.1816V63.709C352.832 71.1211 350.767 77.0098 346.636 81.375C342.534 85.7109 336.968 87.8789 329.937 87.8789C323.169 87.8789 317.734 85.8574 313.633 81.8145C309.531 77.7422 307.319 72.2344 306.997 65.291L306.953 62.7861ZM321.763 63.709C321.763 68.1035 322.451 71.3262 323.828 73.377C325.205 75.4277 327.241 76.4531 329.937 76.4531C335.21 76.4531 337.905 72.3955 338.022 64.2803V62.7861C338.022 54.2607 335.298 49.998 329.849 49.998C324.897 49.998 322.217 53.6748 321.807 61.0283L321.763 63.709ZM357.49 62.874C357.49 55.3447 359.116 49.4121 362.368 45.0762C365.62 40.7402 370.161 38.5723 375.991 38.5723C380.239 38.5723 383.813 40.2422 386.714 43.582V19.5H401.567V87H388.252L387.505 81.9023C384.458 85.8867 380.591 87.8789 375.903 87.8789C370.249 87.8789 365.767 85.7109 362.456 81.375C359.146 77.0391 357.49 70.8721 357.49 62.874ZM372.3 63.7969C372.3 72.2344 374.761 76.4531 379.683 76.4531C382.964 76.4531 385.308 75.0762 386.714 72.3223V54.2168C385.366 51.4043 383.052 49.998 379.771 49.998C375.2 49.998 372.725 53.6895 372.344 61.0723L372.3 63.7969ZM408.115 62.7861C408.115 58.04 409.038 53.8213 410.884 50.1299C412.729 46.4092 415.381 43.5527 418.838 41.5605C422.295 39.5684 426.353 38.5723 431.011 38.5723C438.13 38.5723 443.74 40.7842 447.842 45.208C451.943 49.6025 453.994 55.5938 453.994 63.1816V63.709C453.994 71.1211 451.929 77.0098 447.798 81.375C443.696 85.7109 438.13 87.8789 431.099 87.8789C424.331 87.8789 418.896 85.8574 414.795 81.8145C410.693 77.7422 408.481 72.2344 408.159 65.291L408.115 62.7861ZM422.925 63.709C422.925 68.1035 423.613 71.3262 424.99 73.377C426.367 75.4277 428.403 76.4531 431.099 76.4531C436.372 76.4531 439.067 72.3955 439.185 64.2803V62.7861C439.185 54.2607 436.46 49.998 431.011 49.998C426.06 49.998 423.379 53.6748 422.969 61.0283L422.925 63.709ZM480.625 76.4531C482.705 76.4531 484.316 75.8965 485.459 74.7832C486.602 73.6406 487.158 72.0586 487.129 70.0371H501.016C501.016 75.252 499.141 79.5293 495.391 82.8691C491.67 86.209 486.865 87.8789 480.977 87.8789C474.062 87.8789 468.613 85.7109 464.629 81.375C460.645 77.0391 458.652 71.0332 458.652 63.3574V62.7422C458.652 57.9375 459.531 53.7041 461.289 50.042C463.076 46.3506 465.64 43.5234 468.979 41.5605C472.319 39.5684 476.274 38.5723 480.845 38.5723C487.026 38.5723 491.934 40.2861 495.566 43.7139C499.199 47.1416 501.016 51.7852 501.016 57.6445H487.129C487.129 55.1836 486.528 53.2939 485.327 51.9756C484.126 50.6572 482.515 49.998 480.493 49.998C476.655 49.998 474.414 52.4443 473.77 57.3369C473.564 58.8896 473.462 61.0283 473.462 63.7529C473.462 68.5283 474.033 71.8389 475.176 73.6846C476.318 75.5303 478.135 76.4531 480.625 76.4531ZM516.44 72.6299C518.784 72.6299 520.732 73.333 522.285 74.7393C523.838 76.1162 524.614 77.8887 524.614 80.0566C524.614 82.2246 523.838 84.0117 522.285 85.418C520.732 86.7949 518.784 87.4834 516.44 87.4834C514.067 87.4834 512.104 86.7803 510.552 85.374C509.028 83.9678 508.267 82.1953 508.267 80.0566C508.267 77.918 509.028 76.1455 510.552 74.7393C512.104 73.333 514.067 72.6299 516.44 72.6299Z" fill="black"/>
<rect width="120" height="120" rx="16" fill="#9147FF"/>
<path d="M28 29C28 27.8954 28.8954 27 30 27H32C45.2548 27 56 37.7452 56 51V82C56 83.1046 55.1046 84 54 84H52C38.7452 84 28 73.2548 28 60V29Z" fill="#BE92FF"/>
<path d="M64 38C64 36.8954 64.8954 36 66 36H68C81.2548 36 92 46.7452 92 60V91C92 92.1046 91.1046 93 90 93H88C74.7452 93 64 82.2548 64 69V38Z" fill="white"/>
</svg>
