<svg width="536" height="103" viewBox="0 0 536 103" fill="none" xmlns="http://www.w3.org/2000/svg">
<mask id="mask0" mask-type="alpha" maskUnits="userSpaceOnUse" x="0" y="1" width="125" height="100">
<rect y="1" width="125" height="100" fill="white"/>
</mask>
<g mask="url(#mask0)">
<path fill-rule="evenodd" clip-rule="evenodd" d="M75 101C75 142.421 41.4214 176 0 176C-41.4214 176 -75 142.421 -75 101C-75 59.5786 -41.4214 26 0 26C41.4214 26 75 59.5786 75 101ZM100 101C100 156.228 55.2285 201 0 201C-55.2285 201 -100 156.228 -100 101C-100 45.7715 -55.2285 1 0 1C55.2285 1 100 45.7715 100 101ZM25 101C25 114.807 13.8071 126 0 126C-13.8071 126 -25 114.807 -25 101C-25 87.1929 -13.8071 76 0 76C13.8071 76 25 87.1929 25 101ZM50 101C50 128.614 27.6142 151 0 151C-27.6142 151 -50 128.614 -50 101C-50 73.3858 -27.6142 51 0 51C27.6142 51 50 73.3858 50 101Z" fill="#0032FC" fill-opacity="0.9"/>
<path fill-rule="evenodd" clip-rule="evenodd" d="M200 101C200 142.421 166.421 176 125 176C83.5786 176 50 142.421 50 101C50 59.5786 83.5786 26 125 26C166.421 26 200 59.5786 200 101ZM225 101C225 156.228 180.228 201 125 201C69.7715 201 25 156.228 25 101C25 45.7715 69.7715 1 125 1C180.228 1 225 45.7715 225 101ZM150 101C150 114.807 138.807 126 125 126C111.193 126 100 114.807 100 101C100 87.1929 111.193 76 125 76C138.807 76 150 87.1929 150 101ZM175 101C175 128.614 152.614 151 125 151C97.3858 151 75 128.614 75 101C75 73.3858 97.3858 51 125 51C152.614 51 175 73.3858 175 101Z" fill="#FF6A59"/>
<path fill-rule="evenodd" clip-rule="evenodd" d="M200 101C200 142.421 166.421 176 125 176C83.5786 176 50 142.421 50 101C50 59.5786 83.5786 26 125 26C166.421 26 200 59.5786 200 101ZM225 101C225 156.228 180.228 201 125 201C69.7715 201 25 156.228 25 101C25 45.7715 69.7715 1 125 1C180.228 1 225 45.7715 225 101ZM150 101C150 114.807 138.807 126 125 126C111.193 126 100 114.807 100 101C100 87.1929 111.193 76 125 76C138.807 76 150 87.1929 150 101ZM175 101C175 128.614 152.614 151 125 151C97.3858 151 75 128.614 75 101C75 73.3858 97.3858 51 125 51C152.614 51 175 73.3858 175 101Z" fill="#CCBA7C"/>
<path fill-rule="evenodd" clip-rule="evenodd" d="M75 101C75 142.421 41.4214 176 0 176C-41.4214 176 -75 142.421 -75 101C-75 59.5786 -41.4214 26 0 26C41.4214 26 75 59.5786 75 101ZM100 101C100 156.228 55.2285 201 0 201C-55.2285 201 -100 156.228 -100 101C-100 45.7715 -55.2285 1 0 1C55.2285 1 100 45.7715 100 101ZM25 101C25 114.807 13.8071 126 0 126C-13.8071 126 -25 114.807 -25 101C-25 87.1929 -13.8071 76 0 76C13.8071 76 25 87.1929 25 101ZM50 101C50 128.614 27.6142 151 0 151C-27.6142 151 -50 128.614 -50 101C-50 73.3858 -27.6142 51 0 51C27.6142 51 50 73.3858 50 101Z" fill="#5D79AE"/>
</g>
<path d="M45 41C53.5 29.5 62.5 23 62.5 23C66 25.5 75 34 80 41C74 45 66 54 62.5 59.5C59.5 54.5 51.5 45.5 45 41Z" fill="black" fill-opacity="0.5"/>
<path d="M92.5 63C96.5 72 100 86 100 101H75C75 81 86.5 68 92.5 63Z" fill="black" fill-opacity="0.5"/>
<path d="M32.5 63C28.5 72 25 86 25 101H50C50 81 38.5 68 32.5 63Z" fill="black" fill-opacity="0.5"/>
<path d="M189.258 71.4531C191.338 71.4531 192.949 70.8965 194.092 69.7832C195.234 68.6406 195.791 67.0586 195.762 65.0371H209.648C209.648 70.252 207.773 74.5293 204.023 77.8691C200.303 81.209 195.498 82.8789 189.609 82.8789C182.695 82.8789 177.246 80.7109 173.262 76.375C169.277 72.0391 167.285 66.0332 167.285 58.3574V57.7422C167.285 52.9375 168.164 48.7041 169.922 45.042C171.709 41.3506 174.272 38.5234 177.612 36.5605C180.952 34.5684 184.907 33.5723 189.478 33.5723C195.659 33.5723 200.566 35.2861 204.199 38.7139C207.832 42.1416 209.648 46.7852 209.648 52.6445H195.762C195.762 50.1836 195.161 48.2939 193.96 46.9756C192.759 45.6572 191.147 44.998 189.126 44.998C185.288 44.998 183.047 47.4443 182.402 52.3369C182.197 53.8896 182.095 56.0283 182.095 58.7529C182.095 63.5283 182.666 66.8389 183.809 68.6846C184.951 70.5303 186.768 71.4531 189.258 71.4531ZM240.806 68.6406C240.806 67.3809 240.146 66.3701 238.828 65.6084C237.51 64.8467 235.005 64.0557 231.313 63.2354C227.622 62.415 224.575 61.3457 222.173 60.0273C219.771 58.6797 217.939 57.0537 216.68 55.1494C215.42 53.2451 214.79 51.0625 214.79 48.6016C214.79 44.2363 216.592 40.6475 220.195 37.835C223.799 34.9932 228.516 33.5723 234.346 33.5723C240.615 33.5723 245.654 34.9932 249.463 37.835C253.271 40.6768 255.176 44.4121 255.176 49.041H240.322C240.322 45.2324 238.315 43.3281 234.302 43.3281C232.749 43.3281 231.445 43.7676 230.391 44.6465C229.336 45.4961 228.809 46.5654 228.809 47.8545C228.809 49.1729 229.453 50.2422 230.742 51.0625C232.031 51.8828 234.082 52.5566 236.895 53.084C239.736 53.6113 242.227 54.2412 244.365 54.9736C251.514 57.4346 255.088 61.8438 255.088 68.2012C255.088 72.5371 253.154 76.0674 249.287 78.792C245.449 81.5166 240.469 82.8789 234.346 82.8789C230.273 82.8789 226.641 82.1465 223.447 80.6816C220.254 79.2168 217.764 77.2246 215.977 74.7051C214.189 72.1855 213.296 69.5342 213.296 66.751H227.139C227.197 68.9482 227.93 70.5596 229.336 71.585C230.742 72.5811 232.544 73.0791 234.741 73.0791C236.763 73.0791 238.271 72.6689 239.268 71.8486C240.293 71.0283 240.806 69.959 240.806 68.6406ZM260.317 57.874C260.317 53.0693 261.108 48.8213 262.69 45.1299C264.272 41.4385 266.543 38.5967 269.502 36.6045C272.461 34.583 275.903 33.5723 279.829 33.5723C284.78 33.5723 288.647 35.2422 291.431 38.582L291.958 34.4512H305.405V80.1982C305.405 84.3877 304.424 88.0205 302.461 91.0967C300.527 94.2021 297.715 96.5752 294.023 98.2158C290.332 99.8857 286.055 100.721 281.191 100.721C277.705 100.721 274.321 100.062 271.04 98.7432C267.788 97.4248 265.298 95.7109 263.569 93.6016L269.766 84.9004C272.52 88.1523 276.152 89.7783 280.664 89.7783C287.227 89.7783 290.508 86.4092 290.508 79.6709V78.1768C287.666 81.3115 284.077 82.8789 279.741 82.8789C273.94 82.8789 269.253 80.667 265.679 76.2432C262.104 71.79 260.317 65.8428 260.317 58.4014V57.874ZM275.171 58.7969C275.171 62.6934 275.903 65.7842 277.368 68.0693C278.833 70.3252 280.884 71.4531 283.521 71.4531C286.714 71.4531 289.043 70.3838 290.508 68.2451V48.25C289.072 46.082 286.772 44.998 283.608 44.998C280.972 44.998 278.906 46.1846 277.412 48.5576C275.918 50.9014 275.171 54.3145 275.171 58.7969ZM311.953 57.7861C311.953 53.04 312.876 48.8213 314.722 45.1299C316.567 41.4092 319.219 38.5527 322.676 36.5605C326.133 34.5684 330.19 33.5723 334.849 33.5723C341.968 33.5723 347.578 35.7842 351.68 40.208C355.781 44.6025 357.832 50.5938 357.832 58.1816V58.709C357.832 66.1211 355.767 72.0098 351.636 76.375C347.534 80.7109 341.968 82.8789 334.937 82.8789C328.169 82.8789 322.734 80.8574 318.633 76.8145C314.531 72.7422 312.319 67.2344 311.997 60.291L311.953 57.7861ZM326.763 58.709C326.763 63.1035 327.451 66.3262 328.828 68.377C330.205 70.4277 332.241 71.4531 334.937 71.4531C340.21 71.4531 342.905 67.3955 343.022 59.2803V57.7861C343.022 49.2607 340.298 44.998 334.849 44.998C329.897 44.998 327.217 48.6748 326.807 56.0283L326.763 58.709ZM362.49 57.874C362.49 50.3447 364.116 44.4121 367.368 40.0762C370.62 35.7402 375.161 33.5723 380.991 33.5723C385.239 33.5723 388.813 35.2422 391.714 38.582V14.5H406.567V82H393.252L392.505 76.9023C389.458 80.8867 385.591 82.8789 380.903 82.8789C375.249 82.8789 370.767 80.7109 367.456 76.375C364.146 72.0391 362.49 65.8721 362.49 57.874ZM377.3 58.7969C377.3 67.2344 379.761 71.4531 384.683 71.4531C387.964 71.4531 390.308 70.0762 391.714 67.3223V49.2168C390.366 46.4043 388.052 44.998 384.771 44.998C380.2 44.998 377.725 48.6895 377.344 56.0723L377.3 58.7969ZM413.115 57.7861C413.115 53.04 414.038 48.8213 415.884 45.1299C417.729 41.4092 420.381 38.5527 423.838 36.5605C427.295 34.5684 431.353 33.5723 436.011 33.5723C443.13 33.5723 448.74 35.7842 452.842 40.208C456.943 44.6025 458.994 50.5938 458.994 58.1816V58.709C458.994 66.1211 456.929 72.0098 452.798 76.375C448.696 80.7109 443.13 82.8789 436.099 82.8789C429.331 82.8789 423.896 80.8574 419.795 76.8145C415.693 72.7422 413.481 67.2344 413.159 60.291L413.115 57.7861ZM427.925 58.709C427.925 63.1035 428.613 66.3262 429.99 68.377C431.367 70.4277 433.403 71.4531 436.099 71.4531C441.372 71.4531 444.067 67.3955 444.185 59.2803V57.7861C444.185 49.2607 441.46 44.998 436.011 44.998C431.06 44.998 428.379 48.6748 427.969 56.0283L427.925 58.709ZM485.625 71.4531C487.705 71.4531 489.316 70.8965 490.459 69.7832C491.602 68.6406 492.158 67.0586 492.129 65.0371H506.016C506.016 70.252 504.141 74.5293 500.391 77.8691C496.67 81.209 491.865 82.8789 485.977 82.8789C479.062 82.8789 473.613 80.7109 469.629 76.375C465.645 72.0391 463.652 66.0332 463.652 58.3574V57.7422C463.652 52.9375 464.531 48.7041 466.289 45.042C468.076 41.3506 470.64 38.5234 473.979 36.5605C477.319 34.5684 481.274 33.5723 485.845 33.5723C492.026 33.5723 496.934 35.2861 500.566 38.7139C504.199 42.1416 506.016 46.7852 506.016 52.6445H492.129C492.129 50.1836 491.528 48.2939 490.327 46.9756C489.126 45.6572 487.515 44.998 485.493 44.998C481.655 44.998 479.414 47.4443 478.77 52.3369C478.564 53.8896 478.462 56.0283 478.462 58.7529C478.462 63.5283 479.033 66.8389 480.176 68.6846C481.318 70.5303 483.135 71.4531 485.625 71.4531ZM521.44 67.6299C523.784 67.6299 525.732 68.333 527.285 69.7393C528.838 71.1162 529.614 72.8887 529.614 75.0566C529.614 77.2246 528.838 79.0117 527.285 80.418C525.732 81.7949 523.784 82.4834 521.44 82.4834C519.067 82.4834 517.104 81.7803 515.552 80.374C514.028 78.9678 513.267 77.1953 513.267 75.0566C513.267 72.918 514.028 71.1455 515.552 69.7393C517.104 68.333 519.067 67.6299 521.44 67.6299Z" fill="black"/>
</svg>
